PathFileType	4	(X/Y/Z)	Walk4.trc
DataRate	CameraRate	NumFrames	NumMarkers	Units	OrigDataRate	OrigDataStartFrame	OrigNumFrames
200.000000	200.000000	8	59	mm	200.000000	350	543
Frame#	Times		RFHD		CLAV		RBack		LASI		RACR1		RUA1		RElbow		RElbowM		RFA1		RWRR		RWRU		LACR1		LUA1		LFA1		LWRR		LWRU		RTH1		RTH3		RTH2		RTB3		RTB2		LTH1		LTH2		LTB2		RMT1		RCAR		LFHD		C7		RTB1		RTB4		RPSI		T10		LTH4		LBHD		LTH3		RLFC		STRN		RBHD		LLFC		LElbowM		LCAR		LTB4		RTH4		LTB1		LElbow		LPSI		LToe		LMMAL		RMT5		LCAL		RASI		LMT1		LMT5		LTB3		LLMAL		RToe		RCAL		RMMAL		RLMAL
			X1	Y1	Z1	X2	Y2	Z2	X3	Y3	Z3	X4	Y4	Z4	X5	Y5	Z5	X6	Y6	Z6	X7	Y7	Z7	X8	Y8	Z8	X9	Y9	Z9	X10	Y10	Z10	X11	Y11	Z11	X12	Y12	Z12	X13	Y13	Z13	X14	Y14	Z14	X15	Y15	Z15	X16	Y16	Z16	X17	Y17	Z17	X18	Y18	Z18	X19	Y19	Z19	X20	Y20	Z20	X21	Y21	Z21	X22	Y22	Z22	X23	Y23	Z23	X24	Y24	Z24	X25	Y25	Z25	X26	Y26	Z26	X27	Y27	Z27	X28	Y28	Z28	X29	Y29	Z29	X30	Y30	Z30	X31	Y31	Z31	X32	Y32	Z32	X33	Y33	Z33	X34	Y34	Z34	X35	Y35	Z35	X36	Y36	Z36	X37	Y37	Z37	X38	Y38	Z38	X39	Y39	Z39	X40	Y40	Z40	X41	Y41	Z41	X42	Y42	Z42	X43	Y43	Z43	X44	Y44	Z44	X45	Y45	Z45	X46	Y46	Z46	X47	Y47	Z47	X48	Y48	Z48	X49	Y49	Z49	X50	Y50	Z50	X51	Y51	Z51	X52	Y52	Z52	X53	Y53	Z53	X54	Y54	Z54	X55	Y55	Z55	X56	Y56	Z56	X57	Y57	Z57	X58	Y58	Z58	X59	Y59	Z59

350	1.75	-69.892	1426.6	1.8774	-91.132	1187.1	-59.249	-283.8	1156.5	54.845	-130.78	817.03	-216.5	-167.87	1223.8	116.69	-168.23	1085.1	202.2	-185.99	961	239.59	-238.22	928.43	168.69	-127.39	843.14	245.55	-113.29	742.99	210.04	-144.66	745.69	276.12	-166.25	1214.6	-247.91	-153.29	1053.9	-320.22	-98.607	863.79	-369.26	-26.727	778.37	-342.55	-66.796	757.57	-386.93	-145.22	645.97	162.08	-77.457	492.22	117.15	-61.643	596.15	125.7	-109.31	142.12	28.891	-121.02	228.95	88.048	-199.46	649.31	-260.49	-149.25	572.45	-218.06	-235.96	205.62	-157.03	-64.028	45.464	0.48686	-101.03	687.3	262.78	-58	1437.7	-93.473	-230.76	1273.8	-64.056	-52.629	301.18	50.244	-85.002	221.66	39.286	-367.69	853.49	10.778	-320.82	1077.1	-50.321	-203.34	564.6	-240.1	-185.04	1361.4	-126.97	-208.12	482.1	-210.52	-84.915	408.73	98.208	-42.288	1080.1	-48.571	-199.61	1355	4.897	-190.04	387.33	-173.1	-210.14	906.86	-278.23	-11.646	728.68	-385.63	-219.43	204.41	-97.181	-112	567.57	141.67	-188.91	286.77	-104.32	-185.5	936.97	-345.58	-378.11	858.58	-93.357	-133.08	27.542	-83.497	-285.26	74.373	-43.489	-97.443	35.31	82.463	-352.5	50.27	-78.239	-116.2	841.57	118.16	-187.37	32.841	-58.768	-230.21	19.441	-144.78	-241.25	124.02	-90.933	-306.98	60.704	-121.91	-20.24	48.737	41.697	-228.32	71.596	6.9091	-151.94	97.823	-20.898	-173.36	88.285	59.196
351	1.755	-64.387	1426.2	2.1063	-85.703	1186.7	-58.93	-278.53	1156.2	54.801	-125.76	816.25	-216.21	-162.61	1223.3	116.9	-163.02	1084.6	202.39	-180.84	960.65	239.95	-233.06	927.99	169.08	-122.27	842.8	246.07	-108.09	742.63	210.66	-139.53	745.39	276.71	-160.42	1214.3	-247.73	-147.54	1053.7	-320.24	-91.633	864.19	-369.03	-18.969	779.61	-341.85	-58.633	758.33	-386.38	-139.91	645.53	162.52	-72.058	492.08	116.6	-56.287	595.96	125.88	-94.426	140.95	29.045	-109.32	227.36	87.962	-194.93	648.95	-260.21	-145.2	571.79	-217.76	-234.56	205.34	-156.91	-45.627	46.023	0.90415	-95.807	687.08	263.51	-52.491	1437.4	-93.248	-225.21	1273.4	-63.951	-43.673	301.89	49.873	-73.12	221.31	39.209	-362.38	853.09	11.208	-315.41	1076.9	-50.429	-199.28	564.24	-239.9	-179.51	1361	-126.74	-204.57	481.76	-210.34	-79.039	408.46	97.664	-36.938	1079.6	-48.116	-194.08	1354.6	5.1209	-187.2	386.77	-172.96	-203.87	906.35	-278.4	-3.1457	730.18	-384.87	-218.09	204.01	-97.037	-106.65	567.26	141.63	-186.95	286.13	-104.17	-179.34	936.63	-345.7	-373.06	858.34	-92.832	-132.99	27.477	-83.517	-285	74.535	-43.348	-78.664	34.794	82.919	-352.36	50.802	-78.112	-111.16	841.27	118.51	-187.29	32.806	-58.71	-230.21	19.462	-144.69	-240.57	123.79	-90.816	-306.74	60.96	-121.81	-2.0432	50.997	42.118	-210.79	66.085	7.2269	-135.35	95.082	-20.657	-156.43	84.837	59.492
352	1.76	-58.872	1425.8	2.3606	-80.266	1186.3	-58.604	-273.26	1155.8	54.79	-120.7	815.46	-215.9	-157.34	1222.8	117.13	-157.8	1084.1	202.59	-175.67	960.26	240.32	-227.86	927.52	169.49	-117.11	842.43	246.6	-102.86	742.24	211.3	-134.37	745.06	277.31	-154.58	1213.9	-247.53	-141.79	1053.5	-320.25	-84.712	864.55	-368.8	-11.295	780.81	-341.14	-50.56	759.06	-385.81	-134.62	645.02	162.99	-66.852	491.81	116.11	-51.024	595.63	126.07	-79.597	140	29.219	-97.72	225.88	87.888	-190.44	648.59	-259.93	-141.17	571.11	-217.48	-233.16	205.07	-156.79	-27.315	46.888	1.3216	-90.556	686.82	264.24	-46.969	1436.9	-92.998	-219.65	1273.1	-63.818	-34.909	302.62	49.539	-61.352	221.07	39.156	-357.03	852.66	11.714	-309.99	1076.6	-50.509	-195.25	563.87	-239.7	-173.97	1360.6	-126.49	-201.04	481.42	-210.16	-73.4	408.09	97.147	-31.582	1079	-47.752	-188.56	1354.2	5.3675	-184.36	386.2	-172.81	-197.63	905.82	-278.56	5.2483	731.62	-384.1	-216.74	203.61	-96.897	-101.42	566.86	141.63	-184.97	285.5	-104.02	-173.2	936.28	-345.81	-367.99	858.12	-92.242	-132.9	27.414	-83.549	-284.74	74.717	-43.207	-59.944	34.583	83.364	-352.21	51.357	-77.98	-106.04	840.91	118.85	-187.21	32.773	-58.657	-230.22	19.485	-144.59	-239.9	123.57	-90.7	-306.51	61.233	-121.71	15.997	53.546	42.543	-193.13	60.844	7.5257	-118.73	92.595	-20.419	-139.45	81.644	59.779
353	1.765	-53.346	1425.4	2.6414	-74.82	1185.8	-58.271	-267.97	1155.4	54.814	-115.6	814.66	-215.57	-152.07	1222.3	117.39	-152.57	1083.5	202.81	-170.46	959.83	240.7	-222.64	927.01	169.91	-111.93	842.01	247.14	-97.601	741.81	211.94	-129.19	744.68	277.92	-148.75	1213.5	-247.31	-136.01	1053.2	-320.22	-77.846	864.88	-368.55	-3.708	781.95	-340.43	-42.582	759.76	-385.23	-129.36	644.46	163.49	-61.838	491.42	115.7	-45.855	595.14	126.28	-64.859	139.26	29.405	-86.227	224.5	87.823	-185.97	648.21	-259.65	-137.17	570.41	-217.21	-231.78	204.8	-156.66	-9.1394	48.065	1.7248	-85.283	686.51	264.97	-41.435	1436.5	-92.722	-214.1	1272.7	-63.655	-26.338	303.37	49.242	-49.715	220.94	39.125	-351.64	852.22	12.292	-304.56	1076.2	-50.558	-191.24	563.51	-239.5	-168.43	1360.1	-126.22	-197.52	481.08	-209.98	-67.993	407.63	96.663	-26.217	1078.4	-47.475	-183.03	1353.7	5.6381	-181.51	385.64	-172.67	-191.42	905.29	-278.71	13.533	733.01	-383.31	-215.38	203.22	-96.762	-96.3	566.38	141.69	-182.97	284.87	-103.89	-167.08	935.91	-345.89	-362.88	857.92	-91.591	-132.81	27.353	-83.594	-284.47	74.92	-43.067	-41.327	34.685	83.786	-352.06	51.937	-77.842	-100.84	840.49	119.19	-187.12	32.741	-58.609	-230.22	19.509	-144.49	-239.22	123.37	-90.584	-306.28	61.525	-121.61	33.838	56.384	42.953	-175.39	55.902	7.8002	-102.13	90.382	-20.192	-122.47	78.726	60.05
354	1.77	-47.81	1424.9	2.9496	-69.365	1185.3	-57.931	-262.68	1155	54.874	-110.47	813.86	-215.22	-146.79	1221.7	117.68	-147.33	1082.9	203.05	-165.23	959.37	241.08	-217.38	926.46	170.33	-106.71	841.57	247.69	-92.315	741.34	212.59	-123.97	744.28	278.53	-142.93	1213.1	-247.06	-130.22	1053	-320.17	-71.035	865.17	-368.29	3.7892	783.04	-339.7	-34.699	760.43	-384.64	-124.13	643.86	164.01	-57.015	490.89	115.38	-40.782	594.51	126.5	-50.251	138.75	29.591	-74.86	223.23	87.765	-181.53	647.84	-259.35	-133.18	569.71	-216.96	-230.39	204.55	-156.54	8.8451	49.553	2.0995	-79.989	686.17	265.71	-35.888	1436	-92.418	-208.55	1272.3	-63.462	-17.963	304.15	48.981	-38.23	220.94	39.109	-346.2	851.78	12.938	-299.12	1075.8	-50.572	-187.26	563.15	-239.3	-162.87	1359.7	-125.92	-194.02	480.74	-209.79	-62.812	407.08	96.217	-20.839	1077.8	-47.281	-177.49	1353.3	5.9341	-178.65	385.07	-172.52	-185.24	904.75	-278.84	21.704	734.34	-382.5	-214	202.84	-96.631	-91.3	565.81	141.81	-180.94	284.24	-103.77	-160.97	935.53	-345.96	-357.74	857.75	-90.888	-132.71	27.293	-83.649	-284.2	75.144	-42.931	-22.866	35.1	84.172	-351.9	52.545	-77.7	-95.573	840.01	119.52	-187.03	32.711	-58.565	-230.23	19.534	-144.38	-238.55	123.19	-90.471	-306.05	61.84	-121.51	51.434	59.5	43.327	-157.64	51.286	8.0456	-85.601	88.459	-19.984	-105.54	76.1	60.297
355	1.775	-42.261	1424.4	3.2859	-63.903	1184.8	-57.582	-257.37	1154.5	54.974	-105.29	813.06	-214.86	-141.5	1221.1	117.99	-142.08	1082.3	203.32	-159.97	958.88	241.48	-212.1	925.89	170.77	-101.48	841.1	248.25	-87.003	740.84	213.24	-118.73	743.84	279.15	-137.12	1212.7	-246.8	-124.4	1052.7	-320.08	-64.28	865.42	-368.01	11.194	784.07	-338.96	-26.914	761.06	-384.04	-118.94	643.2	164.54	-52.379	490.23	115.16	-35.806	593.73	126.75	-35.816	138.46	29.77	-63.635	222.09	87.71	-177.13	647.47	-259.05	-129.21	569.01	-216.72	-229.01	204.32	-156.42	26.579	51.342	2.4317	-74.675	685.78	266.45	-30.329	1435.5	-92.087	-203.01	1271.9	-63.237	-9.7848	304.95	48.753	-26.919	221.05	39.101	-340.72	851.33	13.645	-293.67	1075.4	-50.548	-183.3	562.8	-239.1	-157.32	1359.2	-125.59	-190.53	480.4	-209.6	-57.845	406.44	95.811	-15.444	1077.1	-47.163	-171.95	1352.8	6.2569	-175.79	384.51	-172.38	-179.1	904.22	-278.97	29.76	735.61	-381.68	-212.62	202.46	-96.504	-86.416	565.16	141.99	-178.89	283.61	-103.65	-154.87	935.15	-346.01	-352.56	857.6	-90.138	-132.61	27.234	-83.717	-283.91	75.388	-42.8	-4.6176	35.822	84.51	-351.75	53.185	-77.556	-90.226	839.46	119.84	-186.93	32.682	-58.526	-230.23	19.562	-144.27	-237.87	123.02	-90.36	-305.81	62.18	-121.41	68.734	62.876	43.649	-139.94	47.016	8.2583	-69.204	86.835	-19.802	-88.714	73.777	60.514
356	1.78	-36.702	1423.9	3.6509	-58.433	1184.3	-57.223	-252.04	1154	55.116	-100.07	812.28	-214.49	-136.21	1220.5	118.32	-136.82	1081.7	203.6	-154.68	958.36	241.88	-206.78	925.3	171.2	-96.209	840.59	248.82	-81.667	740.31	213.89	-113.45	743.38	279.76	-131.33	1212.3	-246.5	-118.56	1052.4	-319.95	-57.581	865.65	-367.71	18.506	785.04	-338.22	-19.226	761.66	-383.42	-113.79	642.5	165.09	-47.927	489.45	115.07	-30.927	592.81	127.02	-21.599	138.39	29.932	-52.573	221.06	87.655	-172.74	647.11	-258.75	-125.24	568.3	-216.48	-227.63	204.1	-156.29	43.997	53.411	2.7091	-69.344	685.36	267.18	-24.759	1435	-91.726	-197.47	1271.4	-62.98	-1.8052	305.77	48.553	-15.805	221.29	39.093	-335.2	850.89	14.407	-288.21	1075	-50.48	-179.35	562.44	-238.89	-151.76	1358.7	-125.24	-187.04	480.06	-209.41	-53.076	405.72	95.45	-10.031	1076.5	-47.112	-166.41	1352.3	6.6081	-172.9	383.95	-172.25	-173	903.69	-279.08	37.696	736.81	-380.84	-211.22	202.09	-96.384	-81.647	564.42	142.23	-176.81	282.98	-103.55	-148.79	934.77	-346.05	-347.33	857.47	-89.35	-132.51	27.177	-83.795	-283.61	75.655	-42.674	13.355	36.833	84.787	-351.59	53.861	-77.412	-84.803	838.86	120.14	-186.83	32.656	-58.489	-230.23	19.592	-144.15	-237.18	122.88	-90.252	-305.58	62.549	-121.31	85.685	66.48	43.901	-122.37	43.109	8.4368	-53.005	85.509	-19.651	-72.053	71.763	60.695
357	1.785	-31.132	1423.4	4.045	-52.954	1183.8	-56.853	-246.7	1153.4	55.3	-94.818	811.5	-214.13	-130.9	1219.9	118.68	-131.54	1081.1	203.91	-149.38	957.82	242.29	-201.43	924.68	171.63	-90.915	840.07	249.4	-76.309	739.76	214.54	-108.15	742.89	280.38	-125.55	1211.8	-246.18	-112.7	1052.1	-319.78	-50.939	865.85	-367.4	25.721	785.95	-337.47	-11.638	762.23	-382.78	-108.67	641.77	165.65	-43.655	488.54	115.1	-26.143	591.76	127.31	-7.651	138.53	30.069	-41.693	220.17	87.596	-168.37	646.74	-258.44	-121.28	567.59	-216.26	-226.24	203.89	-156.17	61.031	55.731	2.921	-63.995	684.91	267.91	-19.179	1434.5	-91.336	-191.95	1270.9	-62.69	5.9762	306.59	48.373	-4.9127	221.63	39.077	-329.63	850.45	15.217	-282.75	1074.5	-50.364	-175.41	562.1	-238.69	-146.19	1358.2	-124.86	-183.55	479.73	-209.22	-48.483	404.92	95.135	-4.5955	1075.8	-47.118	-160.86	1351.8	6.9891	-169.99	383.39	-172.13	-166.94	903.17	-279.17	45.511	737.95	-379.99	-209.81	201.73	-96.271	-76.991	563.61	142.54	-174.71	282.35	-103.45	-142.72	934.39	-346.06	-342.06	857.36	-88.531	-132.41	27.121	-83.882	-283.3	75.945	-42.555	30.982	38.111	84.995	-351.42	54.579	-77.269	-79.305	838.2	120.43	-186.74	32.632	-58.456	-230.23	19.625	-144.03	-236.49	122.75	-90.15	-305.34	62.95	-121.21	102.23	70.273	44.068	-105.02	39.572	8.5819	-37.076	84.477	-19.535	-55.63	70.057	60.839
